<svg width="1000" height="198" viewBox="0 0 1000 198" fill="none" xmlns="http://www.w3.org/2000/svg">
<path fill-rule="evenodd" clip-rule="evenodd" d="M556.42 124.164C552.74 127.391 547.728 129.236 541.953 129.236C532.559 129.236 527.825 126.51 525.345 120.696C520.026 126.919 513.524 129.236 504.25 129.236C489.932 129.236 480.256 121.761 480.256 108.932C480.256 95.0647 492.581 88.3941 509.288 83.2403L510.536 82.8593C518.932 80.2665 525.458 77.381 525.458 70.2235V66.6712C525.458 55.9827 520.551 50.3774 511.545 50.3774C504.543 50.3774 501.636 53.658 500.779 60.7978C500.338 64.5194 498.768 68.9677 493.354 68.9677C488.866 68.9677 485.963 66.2797 485.963 62.1277C485.963 52.7691 496.775 46.1619 512.836 46.1619C532.559 46.1619 540.228 54.046 540.228 70.1565V109.634C540.228 120.054 541.96 123.74 546.87 123.74C549.368 123.74 551.77 122.922 554.218 121.134L556.42 124.164ZM525.634 101.742V80.6934C522.523 82.4783 519.578 84.0163 516.734 85.5015C504.779 91.71 495.95 96.9449 495.95 109.422C495.95 117.782 501.601 124.093 509.171 124.093C519.775 124.093 525.634 115.98 525.634 101.742Z" fill="black"/>
<path d="M38.1226 72.9892H76.7883L57.5772 24.4038L38.1226 72.9892ZM78.7391 77.9243H36.1436L32.7818 86.3234C28.6722 96.5781 26.157 105.633 26.1394 110.551C26.1111 118.382 31.6776 121.825 42.4156 123.282V126.503H0V123.148C12.5723 122.418 18.287 106.544 32.0269 73.028L61.9725 0H65.9234L103.665 92.7013C111.531 112.018 115.68 122.784 127.518 123.148V126.503H76.0617V123.158C86.08 122.612 91.3008 119.842 91.322 113.641C91.3326 110.374 89.6146 105.422 86.8102 98.3489L78.7391 77.9243Z" fill="black"/>
<path d="M204.744 48.8958H177.148V52.381H178.527C190.08 52.381 190.447 56.2014 190.447 76.4991V99.6224C190.447 106.868 190.161 111.951 186.369 116.442C182.527 121.014 176.809 123.927 171.063 123.927C160.494 123.927 155.136 116.615 155.136 102.543V48.8958H126.887V52.381H128.266C139.819 52.381 140.182 56.2014 140.182 76.4991V101.866C140.182 119.458 147.675 129.236 166.015 129.236C176.351 129.236 183.261 126.132 190.447 119.631C190.447 121.324 190.447 128.372 190.447 128.372L194.765 127.751C202.405 126.661 209.619 125.621 216.65 124.841L217.062 124.795V121.934L216.632 121.903C207.669 121.211 205.224 117.871 205.224 106.346V48.8958H204.744Z" fill="black"/>
<path d="M234.683 67.5497C234.683 81.7729 246.384 86.5033 258.83 93.435C267.211 98.1514 273.187 103.175 273.187 111.073C273.187 118.872 267.832 124.464 259.807 124.464C247.954 124.464 240.916 118.315 236.211 100.787L236.115 100.434H233.65V127.959H235.999L236.14 127.755C237.946 125.219 239.467 124.132 241.216 124.132C242.031 124.132 243.291 124.703 244.885 125.423C248.229 126.94 253.655 129.233 260.9 129.233C276.213 129.233 286.874 119.148 286.874 105.259C286.874 98.5183 284.249 93.3045 279.822 88.8562C275.797 84.8031 269.557 81.2472 262.555 77.5151C252.699 72.1214 246.176 68.7279 246.176 60.9884C246.176 54.5082 251.467 50.5573 258.307 50.5573C267.934 50.5573 275.074 57.549 277.893 70.7703L277.974 71.1372H280.464V47.4354H278.041L277.917 47.7247C277.081 49.746 276.129 50.5326 274.527 50.5326C273.726 50.5326 272.513 49.9964 270.971 49.3227C267.934 47.9892 263.211 46.1584 257.574 46.1584C244.515 46.1619 234.683 55.1326 234.683 67.5497Z" fill="black"/>
<path d="M351.28 122.795C347.171 127.067 341.417 129.233 334.087 129.233C319.546 129.233 312.685 122.629 312.685 109.789C312.685 97.7492 313.376 53.4817 313.376 53.4817H303.393V49.1145L303.785 49.051C314.311 47.2978 320.082 41.315 324.365 28.0972L324.471 27.7726H327.727H328.196L328.009 48.8993H348.095V53.4852H327.998L327.642 104.438V106.632C327.642 117.475 330.704 123.561 339.555 123.561C343.255 123.561 346.155 122.467 348.797 119.938L351.28 122.795Z" fill="black"/>
<path d="M383.561 46.5852C375.998 49.1674 367.987 51.0688 359.055 52.4057L358.66 52.4621V55.3054L359.094 55.3371C368.759 56.0356 371.409 59.415 371.409 71.0737V98.7158C371.409 119.306 371.409 123.014 359.492 123.014H358.297V126.506H401.668V123.014H400.102C393.089 123.014 390.017 121.913 388.359 118.805C386.507 115.32 386.362 108.808 386.362 99.2661V83.6001C386.362 65.3625 393.28 53.4852 399.739 53.4852C402.861 53.4852 404.363 55.3936 405.958 57.8135C407.658 60.3921 409.588 63.3165 413.754 63.3165C418.068 63.3165 420.961 60.565 420.961 56.473C420.961 50.1339 415.408 46.1689 407.199 46.1689C398.511 46.1689 391.082 50.7089 385.992 60.9989C385.946 55.2207 385.713 51.4956 385.269 47.3613L385.233 47.065L383.702 46.5464L383.561 46.5852Z" fill="black"/>
<path d="M437.134 16.6784C437.134 21.8004 440.856 25.5185 445.985 25.5185C451.191 25.5185 454.828 21.8816 454.828 16.6784C454.828 11.9655 450.694 7.8277 445.985 7.8277C441.268 7.8277 437.134 11.9655 437.134 16.6784Z" fill="black"/>
<path d="M453.135 46.5182C444.994 48.8076 436.506 50.6525 426.421 52.3422L426.029 52.4057V55.2419L426.467 55.2701C436.129 55.9721 438.774 59.3551 438.774 71.0067V98.7158C438.774 119.306 438.774 123.014 426.862 123.014H425.662V126.506H467.03V123.014H465.831C454.066 123.014 453.735 119.557 453.735 98.7158V46.3489L453.135 46.5182Z" fill="black"/>
<path d="M588.763 46.5852C581.19 49.171 573.179 51.0688 564.264 52.4058L563.866 52.4622V55.3054L564.293 55.3372C573.965 56.0356 576.604 59.4151 576.604 71.0737V98.7158C576.604 119.306 576.604 123.014 564.698 123.014H563.502V126.506H604.867V123.014H603.657C591.903 123.014 591.564 119.557 591.564 98.7158V74.5096C591.564 68.6644 591.864 63.4753 595.462 59.1434C599.3 54.5787 605.018 51.8484 610.761 51.8484C621.33 51.8484 626.692 58.9812 626.692 73.0527V98.7193C626.692 119.557 626.36 123.017 614.779 123.017H613.58V126.51H654.948V123.017H653.748C642.026 123.017 641.656 119.169 641.656 98.7193V72.8728C641.656 56.0533 634.608 46.1655 616.571 46.1655C606.391 46.1655 599.05 48.8993 591.476 55.8769C591.324 54.353 590.45 47.0579 590.45 47.0579L588.912 46.5394L588.763 46.5852Z" fill="black"/>
<path d="M999.946 107.884C999.487 105.408 999.946 102.815 986.509 103.806C973.073 104.829 809.816 118.308 788.45 118.308C785.762 118.308 774.29 119.084 775.243 124.164C776.241 129.247 782.848 129.572 784.781 129.847C786.725 130.083 807.001 132.32 812.73 137.417C821.613 145.305 810.497 167.486 795.484 178.185C767.193 198.356 781.8 199.509 789.296 194.842C827.437 171.363 894.45 140.415 988.707 115.765C988.707 115.765 1000.91 112.971 999.946 107.884Z" fill="#374151"/>
<path d="M789.557 118.534C786.894 118.534 775.507 119.296 776.463 124.277C777.422 129.251 784.139 129.572 786.054 129.822C787.977 130.076 808.081 132.267 813.647 137.371C822.279 145.266 811.199 167.087 796.341 177.695C768.745 197.386 783.102 198.493 790.531 193.89C827.62 171.074 894.206 140.257 987.553 115.842C987.553 115.842 999.709 113.052 998.767 108.099C998.309 105.648 998.75 103.178 985.447 104.162C972.138 105.168 810.719 118.534 789.557 118.534Z" fill="#374151"/>
<path d="M790.668 118.759C788.033 118.759 776.745 119.507 777.683 124.39C778.625 129.254 785.43 129.547 787.328 129.797C789.233 130.051 809.16 132.221 814.571 137.322C822.953 145.227 811.901 166.685 797.198 177.201C770.29 196.416 784.396 197.481 791.762 192.93C827.796 170.784 893.956 140.094 986.389 115.916C986.389 115.916 998.503 113.129 997.582 108.311C997.124 105.884 997.547 103.542 984.378 104.512C971.199 105.513 811.622 118.759 790.668 118.759Z" fill="#374151"/>
<path d="M791.773 118.982C789.166 118.982 777.976 119.712 778.904 124.499C779.821 129.247 786.725 129.519 788.605 129.766C790.488 130.016 810.243 132.168 815.492 137.265C823.627 145.185 812.606 166.276 798.059 176.7C771.842 195.435 785.698 196.462 792.997 191.967C827.976 170.484 893.709 139.921 985.228 115.983C985.228 115.983 997.3 113.2 996.4 108.515C995.938 106.113 996.351 103.898 983.31 104.861C970.261 105.852 812.522 118.982 791.773 118.982Z" fill="#374151"/>
<path d="M792.884 119.207C790.305 119.207 779.215 119.924 780.128 124.615C781.028 129.247 788.02 129.497 789.882 129.744C791.748 129.991 811.33 132.122 816.417 137.219C824.297 145.146 813.309 165.877 798.916 176.21C773.391 194.468 787 195.446 794.232 191.011C828.16 170.199 893.466 139.759 984.075 116.057C984.075 116.057 996.097 113.278 995.222 108.731C994.76 106.353 995.159 104.261 982.245 105.214C969.323 106.194 813.425 119.207 792.884 119.207Z" fill="#374151"/>
<path d="M793.995 119.433C791.438 119.433 780.453 120.132 781.349 124.728C782.227 129.247 789.31 129.476 791.155 129.72C793 129.963 812.402 132.069 817.334 137.17C824.967 145.107 814.011 165.472 799.773 175.716C774.936 193.498 788.295 194.433 795.459 190.055C828.333 169.902 893.212 139.593 982.911 116.131C982.911 116.131 994.887 113.355 994.034 108.942C993.575 106.589 993.956 104.621 981.172 105.563C968.388 106.54 814.332 119.433 793.995 119.433Z" fill="#374151"/>
<path d="M795.103 119.656C792.57 119.656 781.694 120.34 782.573 124.841C783.434 129.251 790.602 129.459 792.432 129.699C794.263 129.938 813.488 132.023 818.254 137.121C825.641 145.065 814.713 165.073 800.63 175.225C776.484 192.525 789.596 193.414 796.697 189.099C828.52 169.62 892.968 139.435 981.754 116.209C981.754 116.209 993.695 113.436 992.855 109.157C992.4 106.833 992.76 104.988 980.107 105.919C967.45 106.879 815.231 119.656 795.103 119.656Z" fill="#374151"/>
<path d="M796.211 119.878C793.706 119.878 782.929 120.548 783.79 124.954C784.63 129.247 791.9 129.43 793.703 129.67C795.519 129.91 814.565 131.97 819.172 137.071C826.315 145.029 815.411 164.671 801.484 174.732C778.029 191.558 790.902 192.419 797.925 188.143C828.735 169.398 892.715 139.272 980.59 116.283C980.59 116.283 992.475 113.518 991.667 109.369C991.208 107.069 991.557 105.351 979.038 106.272C966.508 107.221 816.131 119.878 796.211 119.878Z" fill="#374151"/>
<path d="M797.318 120.107C794.838 120.107 784.167 120.76 785.014 125.067C785.835 129.247 793.19 129.402 794.979 129.642C796.778 129.878 815.647 131.921 820.092 137.022C826.985 144.987 816.116 164.265 802.345 174.238C779.581 190.585 792.206 191.403 799.163 187.184C828.932 169.123 892.474 139.103 979.433 116.354C979.433 116.354 991.289 113.588 990.491 109.581C990.036 107.302 990.365 105.715 977.972 106.625C965.573 107.567 817.033 120.107 797.318 120.107Z" fill="#374151"/>
<path d="M798.43 120.329C795.978 120.329 785.409 120.971 786.238 125.18C787.043 129.243 794.486 129.385 796.257 129.621C798.038 129.857 816.734 131.872 821.02 136.972C827.663 144.945 816.847 163.895 803.209 173.744C781.169 189.664 793.516 190.398 800.402 186.228C829.127 168.848 892.231 138.941 978.28 116.428C978.28 116.428 990.094 113.666 989.314 109.792C988.863 107.535 989.169 106.074 976.908 106.974C964.635 107.909 817.937 120.329 798.43 120.329Z" fill="#374151"/>
<path d="M799.537 120.552C797.11 120.552 786.643 121.176 787.455 125.293C788.238 129.243 795.776 129.36 797.526 129.593C799.286 129.826 817.82 131.812 821.933 136.919C828.343 144.888 817.545 163.489 804.059 173.246C782.717 188.687 794.81 189.378 801.628 185.269C829.316 168.576 891.977 138.768 977.118 116.498C977.118 116.498 988.883 113.74 988.128 110.001C987.677 107.771 987.966 106.434 975.838 107.323C963.696 108.251 818.836 120.552 799.537 120.552Z" fill="#374151"/>
<path d="M800.645 120.777C798.243 120.777 787.878 121.388 788.676 125.405C789.438 129.244 797.071 129.335 798.803 129.568C800.546 129.797 818.907 131.762 822.854 136.87C829.021 144.846 818.244 163.094 804.917 172.753C784.266 187.717 796.108 188.373 802.864 184.313C829.511 168.304 891.73 138.606 975.955 116.572C975.955 116.572 987.681 113.817 986.943 110.212C986.492 108.011 986.764 106.794 974.766 107.676C962.758 108.593 819.74 120.777 800.645 120.777Z" fill="#374151"/>
<path d="M801.752 121.003C799.375 121.003 789.113 121.596 789.9 125.518C790.644 129.24 798.366 129.31 800.08 129.54C801.805 129.769 819.993 131.706 823.782 136.817C829.701 144.804 818.96 162.688 805.781 172.259C785.822 186.747 797.42 187.353 804.102 183.353C829.694 168.019 891.487 138.443 974.805 116.646C974.805 116.646 986.485 113.895 985.768 110.424C985.32 108.244 985.574 107.157 973.708 108.025C961.82 108.935 820.642 121.003 801.752 121.003Z" fill="#374151"/>
<path d="M802.864 121.229C800.514 121.229 790.355 121.807 791.124 125.631C791.85 129.24 799.664 129.293 801.357 129.515C803.061 129.744 821.076 131.656 824.703 136.771C830.372 144.765 819.662 162.29 806.638 171.765C787.37 185.784 798.719 186.348 805.333 182.397C829.881 167.74 891.24 138.281 973.644 116.724C973.644 116.724 985.285 113.973 984.587 110.639C984.139 108.487 984.379 107.521 972.639 108.381C960.885 109.281 821.546 121.229 802.864 121.229Z" fill="#374151"/>
<path d="M803.971 121.451C801.65 121.451 791.589 122.012 792.341 125.744C793.043 129.24 800.952 129.265 802.627 129.49C804.32 129.713 822.152 131.61 825.62 136.725C831.042 144.726 820.367 161.891 807.492 171.275C788.919 184.81 800.017 185.336 806.564 181.441C830.065 167.458 890.993 138.119 972.48 116.795C972.48 116.795 984.072 114.05 983.402 110.851C982.954 108.724 983.172 107.884 971.57 108.731C959.943 109.62 822.449 121.451 803.971 121.451Z" fill="#374151"/>
<path d="M805.083 121.677C802.783 121.677 792.828 122.224 793.565 125.857C794.25 129.24 802.247 129.247 803.905 129.466C805.577 129.684 823.239 131.558 826.545 136.673C831.723 144.684 821.07 161.486 808.353 170.777C790.475 183.84 801.322 184.323 807.799 180.482C830.252 167.168 890.75 137.95 971.324 116.869C971.324 116.869 982.869 114.124 982.224 111.059C981.779 108.953 981.98 108.24 970.505 109.083C959.005 109.965 823.345 121.677 805.083 121.677Z" fill="#374151"/>
<path d="M806.19 121.903C803.915 121.903 794.066 122.432 794.789 125.966C795.452 129.236 803.537 129.215 805.178 129.434C806.832 129.653 824.322 131.505 827.461 136.616C832.389 144.638 821.775 161.083 809.206 170.28C792.02 182.863 802.617 183.304 809.03 179.519C830.432 166.883 890.499 137.78 970.162 116.936C970.162 116.936 981.669 114.198 981.038 111.27C980.59 109.193 980.78 108.604 969.436 109.433C958.07 110.304 824.248 121.903 806.19 121.903Z" fill="#374151"/>
<path d="M807.301 122.128C805.054 122.128 795.304 122.643 796.01 126.083C796.659 129.24 804.836 129.198 806.458 129.413C808.092 129.632 825.405 131.459 828.386 136.57C833.067 144.599 822.481 160.681 810.074 169.786C793.572 181.896 803.929 182.295 810.272 178.563C830.622 166.593 890.259 137.621 969.009 117.01C969.009 117.01 980.47 114.276 979.863 111.486C979.415 109.429 979.592 108.967 968.374 109.792C957.132 110.646 825.151 122.128 807.301 122.128Z" fill="#374151"/>
<path d="M808.409 122.351C806.187 122.351 796.542 122.852 797.23 126.196C797.858 129.236 806.127 129.173 807.732 129.385C809.347 129.6 826.484 131.406 829.306 136.517C833.741 144.557 823.182 160.279 810.928 169.292C795.121 180.923 805.224 181.279 811.499 177.603C830.798 166.301 890.005 137.449 967.845 117.084C967.845 117.084 979.257 114.35 978.675 111.694C978.23 109.662 978.385 109.327 967.298 110.142C956.193 110.992 826.054 122.351 808.409 122.351Z" fill="#374151"/>
<path d="M809.52 122.576C807.322 122.576 797.783 123.063 798.454 126.312C799.06 129.24 807.421 129.155 809.005 129.363C810.603 129.572 827.567 131.36 830.227 136.475C834.414 144.525 823.884 159.884 811.784 168.805C796.669 179.956 806.525 180.273 812.733 176.654C830.978 166.019 889.761 137.297 966.687 117.165C966.687 117.165 978.053 114.438 977.496 111.916C977.051 109.909 977.189 109.697 966.236 110.501C955.255 111.33 826.956 122.576 809.52 122.576Z" fill="#374151"/>
<path d="M810.628 122.799C808.458 122.799 799.015 123.271 799.671 126.418C800.26 129.236 808.709 129.127 810.278 129.335C811.859 129.543 828.647 131.307 831.144 136.419C835.081 144.479 824.586 159.471 812.638 168.304C798.207 178.972 807.823 179.25 813.965 175.691C831.151 165.722 889.511 137.128 965.527 117.236C965.527 117.236 976.851 114.512 976.315 112.121C975.87 110.138 975.99 110.053 965.167 110.847C954.317 111.673 827.86 122.799 810.628 122.799Z" fill="#374151"/>
<path d="M811.735 123.028C809.59 123.028 800.249 123.479 800.895 126.534C801.463 129.24 810.007 129.106 811.552 129.311C813.111 129.519 829.726 131.258 832.065 136.373C835.751 144.44 825.285 159.076 813.495 167.814C799.755 178.002 809.118 178.242 815.199 174.735C831.331 165.429 889.261 136.962 964.363 117.31C964.363 117.31 975.637 114.586 975.129 112.336C974.685 110.378 974.787 110.417 964.095 111.2C953.378 112.018 828.763 123.028 811.735 123.028Z" fill="#374151"/>
<path d="M812.843 123.25C810.727 123.25 801.491 123.688 802.119 126.647C802.666 129.233 811.302 129.085 812.829 129.286C814.374 129.49 830.816 131.208 832.989 136.32C836.428 144.405 825.99 158.667 814.36 167.317C801.308 177.028 810.427 177.229 816.438 173.776C831.507 165.122 889.021 136.8 963.21 117.38C963.21 117.38 974.438 114.664 973.951 112.547C973.507 110.611 973.595 110.777 963.033 111.549C952.44 112.36 829.663 123.25 812.843 123.25Z" fill="#374151"/>
<path d="M813.95 123.476C811.859 123.476 802.722 123.899 803.336 126.764C803.865 129.236 812.589 129.064 814.102 129.265C815.63 129.469 831.892 131.162 833.906 136.274C837.095 144.366 826.689 158.265 815.213 166.826C802.846 176.054 811.721 176.21 817.665 172.82C831.684 164.826 888.767 136.634 962.049 117.454C962.049 117.454 973.231 114.742 972.766 112.759C972.318 110.851 972.395 111.14 961.964 111.902C951.505 112.703 830.565 123.476 813.95 123.476Z" fill="#374151"/>
<path d="M815.062 123.698C812.995 123.698 803.964 124.107 804.56 126.873C805.072 129.229 813.884 129.035 815.376 129.233C816.885 129.437 832.971 131.11 834.83 136.221C837.772 144.32 827.394 157.856 816.074 166.329C804.394 175.074 813.023 175.194 818.903 171.86C831.857 164.519 888.527 136.464 960.892 117.525C960.892 117.525 972.025 114.812 971.588 112.964C971.143 111.083 971.203 111.496 960.899 112.251C950.567 113.045 831.465 123.698 815.062 123.698Z" fill="#374151"/>
<path d="M816.169 123.927C814.13 123.927 805.198 124.315 805.78 126.986C806.274 129.233 815.181 129.018 816.656 129.212C818.145 129.413 834.054 131.06 835.751 136.175C838.446 144.289 828.092 157.454 816.931 165.842C805.939 174.1 814.321 174.181 820.134 170.911C832.029 164.223 888.276 136.306 959.731 117.606C959.731 117.606 970.818 114.9 970.402 113.186C969.954 111.327 970 111.867 959.83 112.611C949.628 113.383 832.368 123.927 816.169 123.927Z" fill="#374151"/>
<path d="M817.281 124.15C815.267 124.15 806.437 124.527 807.005 127.099C807.478 129.229 816.476 128.99 817.933 129.184C819.404 129.381 835.137 131.014 836.672 136.126C839.113 144.25 828.795 157.044 817.789 165.345C807.481 173.12 815.616 173.158 821.369 169.952C832.199 163.913 888.033 136.143 958.574 117.677C958.574 117.677 969.612 114.978 969.228 113.394C968.78 111.56 968.808 112.23 958.769 112.96C948.694 113.729 833.271 124.15 817.281 124.15Z" fill="#374151"/>
<path d="M818.385 124.372C816.402 124.372 807.675 124.735 808.226 127.212C808.677 129.229 817.764 128.968 819.2 129.159C820.657 129.353 836.213 130.961 837.593 136.073C839.787 144.207 829.486 156.632 818.646 164.847C809.026 172.139 816.91 172.139 822.6 168.992C832.368 163.599 887.787 135.978 957.414 117.751C957.414 117.751 968.402 115.052 968.043 113.606C967.591 111.796 967.609 112.59 957.696 113.313C947.752 114.071 834.174 124.372 818.385 124.372Z" fill="#374151"/>
<path d="M819.496 124.598C817.535 124.598 808.91 124.947 809.446 127.324C809.876 129.229 819.062 128.94 820.48 129.131C821.912 129.321 837.296 130.916 838.513 136.023C840.457 144.169 830.188 156.226 819.503 164.353C810.568 171.155 818.205 171.109 823.835 168.033C832.534 163.278 887.539 135.808 956.257 117.821C956.257 117.821 967.199 115.13 966.861 113.814C966.405 112.032 966.409 112.928 956.631 113.659C946.813 114.392 835.077 124.598 819.496 124.598Z" fill="#374151"/>
<path d="M820.603 124.823C818.667 124.823 810.148 125.155 810.67 127.434C811.079 129.229 820.353 128.919 821.757 129.106C823.171 129.296 838.379 130.863 839.437 135.971C841.127 144.123 830.876 155.796 820.367 163.86C812.109 170.163 819.503 170.079 825.073 167.073C832.699 162.96 887.296 135.646 955.099 117.892C955.099 117.892 965.989 115.204 965.682 114.026C965.224 112.272 965.213 113.309 955.569 114.011C945.878 114.756 835.977 124.823 820.603 124.823Z" fill="#374151"/>
<path d="M821.715 125.049C819.807 125.049 811.383 125.363 811.891 127.55C812.279 129.229 821.648 128.901 823.031 129.085C824.431 129.272 839.459 130.817 840.358 135.925C841.798 144.091 831.578 155.397 821.221 163.366C813.651 169.193 820.787 169.042 826.301 166.117C832.862 162.639 887.046 135.48 953.939 117.969C953.939 117.969 964.776 115.285 964.497 114.237C964.035 112.509 964.014 113.673 954.497 114.364C944.937 115.101 836.877 125.049 821.715 125.049Z" fill="#374151"/>
<path d="M963.315 114.452C962.839 112.752 962.814 114.036 953.428 114.717C943.998 115.44 837.779 125.271 822.822 125.271C820.939 125.271 812.638 125.568 813.111 127.663C813.495 129.222 822.939 128.884 824.304 129.057C825.687 129.251 840.524 130.767 841.279 135.875C842.443 144.056 832.28 154.995 822.082 162.875C815.206 168.227 822.082 168.015 827.539 165.161C833.035 162.332 886.802 135.318 952.782 118.043C952.782 118.043 963.566 115.366 963.315 114.452Z" fill="#374151"/>
<path d="M939.818 0.123474C939.818 0.123474 849.808 6.68478 776.769 21.0068C776.769 21.0068 771.146 22.0721 767.446 22.8129C767.446 22.8129 780.456 20.6258 784.601 25.4868C788.94 30.5736 795.356 43.3293 743.713 88.634C726.604 103.623 707.505 116.992 692.951 126.503L726.833 121.035C742.594 106.032 784.234 72.1108 821.231 52.7056C883.881 19.8532 933.151 2.40583 939.525 0.426854C939.984 0.285751 939.818 0.123474 939.818 0.123474Z" fill="url(#paint0_linear_205_330)"/>
<path d="M939.818 0.123474C939.818 0.123474 849.808 6.68478 776.769 21.0068C776.769 21.0068 771.146 22.0721 767.446 22.8129C767.446 22.8129 780.456 20.6258 784.601 25.4868C788.94 30.5736 795.356 43.3293 743.713 88.634C726.604 103.623 707.505 116.992 692.951 126.503L726.833 121.035C742.594 106.032 784.234 72.1108 821.231 52.7056C883.881 19.8532 933.151 2.40583 939.525 0.426854C939.984 0.285751 939.818 0.123474 939.818 0.123474Z" fill="black"/>
<mask id="mask0_205_330" style="mask-type:luminance" maskUnits="userSpaceOnUse" x="703" y="20" width="85" height="69">
<path d="M767.446 22.8129C767.446 22.8129 780.456 20.6258 784.604 25.4868C788.947 30.5736 795.356 43.3293 743.713 88.634L703.752 34.4151L741.963 20.1037L767.446 22.8129Z" fill="white"/>
</mask>
<g mask="url(#mask0_205_330)">
<path d="M715.291 34.7431L746.204 39.3854C804.409 12.3501 801.692 41.9853 801.692 41.9853L822.879 13.1685C807.4 15.4649 791.738 18.0753 776.777 21.0067C776.777 21.0067 771.154 22.0721 767.454 22.8129L715.284 34.5209L715.207 34.5456C715.154 34.5597 715.122 34.5809 715.122 34.6373C715.122 34.6832 715.157 34.7149 715.207 34.729C715.245 34.7361 715.291 34.7431 715.291 34.7431Z" fill="url(#paint1_linear_205_330)"/>
</g>
<mask id="mask1_205_330" style="mask-type:luminance" maskUnits="userSpaceOnUse" x="703" y="20" width="85" height="69">
<path d="M767.446 22.8129C767.446 22.8129 780.456 20.6258 784.604 25.4868C788.947 30.5736 795.356 43.3293 743.713 88.634L703.752 34.4151L741.963 20.1037L767.446 22.8129Z" fill="white"/>
</mask>
<g mask="url(#mask1_205_330)">
<path d="M715.291 34.7431L746.204 39.3854C804.409 12.3501 801.692 41.9853 801.692 41.9853L822.879 13.1685C807.4 15.4649 791.738 18.0753 776.777 21.0067C776.777 21.0067 771.154 22.0721 767.454 22.8129L715.284 34.5209L715.207 34.5456C715.154 34.5597 715.122 34.5809 715.122 34.6373C715.122 34.6832 715.157 34.7149 715.207 34.729C715.245 34.7361 715.291 34.7431 715.291 34.7431Z" fill="black"/>
</g>
<defs>
<linearGradient id="paint0_linear_205_330" x1="805.909" y1="13.9918" x2="824.394" y2="100.956" gradientUnits="userSpaceOnUse">
<stop stop-color="white"/>
<stop offset="0.2184" stop-color="#FCFCFC"/>
<stop offset="0.3937" stop-color="#F2F2F2"/>
<stop offset="0.5541" stop-color="#E1E2E2"/>
<stop offset="0.7047" stop-color="#C9CACC"/>
<stop offset="0.7247" stop-color="#C6C7C8"/>
</linearGradient>
<linearGradient id="paint1_linear_205_330" x1="714.949" y1="27.5777" x2="823.176" y2="27.5777" gradientUnits="userSpaceOnUse">
<stop stop-color="white"/>
<stop offset="0.0886" stop-color="#FBFBFB"/>
<stop offset="0.1804" stop-color="#EEEFEF"/>
<stop offset="0.2737" stop-color="#DADADB"/>
<stop offset="0.368" stop-color="#BDBDBE"/>
<stop offset="0.4622" stop-color="#98999A"/>
<stop offset="0.5" stop-color="#87888A"/>
</linearGradient>
</defs>
</svg>
