<svg width="1000" height="170" viewBox="0 0 1000 170" fill="none" xmlns="http://www.w3.org/2000/svg">
<path d="M980.274 106.602C977.539 102.227 974.785 99.4726 971.777 97.5586C983.828 93.457 989.317 86.6015 989.317 73.9844C989.317 55.3515 977.813 46.0351 954.512 46.0351H918.887V140.312H942.734C942.734 140.312 942.734 104.961 942.734 103.047C943.828 103.047 945.742 103.047 945.742 103.047C951.231 103.047 953.145 104.414 957.246 111.816L973.965 140.312H1000L980.274 106.602ZM943.008 64.4141C944.648 64.4141 953.965 64.4141 953.965 64.4141C963.281 64.4141 966.289 67.1484 966.289 75.3711C966.289 83.5937 963.008 86.6015 953.965 86.6015C953.965 86.6015 944.648 86.6015 943.008 86.6015V64.4141ZM859.688 121.406V101.68C861.602 101.68 891.484 101.68 891.484 101.68V83.5938C891.484 83.5938 861.348 83.5938 859.688 83.5938V65.5078C861.602 65.5078 899.981 65.5078 899.981 65.5078V46.3281H835.586V140.605H901.914L903.555 121.426C903.535 121.406 861.328 121.406 859.688 121.406ZM786.524 90.7226C787.344 89.6289 821.602 46.3281 821.602 46.3281H796.66C796.66 46.3281 769.258 82.5 765.977 86.6211C765.977 81.6797 765.977 46.3281 765.977 46.3281H742.129V140.605H765.977C765.977 140.605 765.977 105.801 765.977 100.859C768.984 104.961 796.113 140.605 796.113 140.605H824.609C824.609 140.586 787.617 91.8164 786.524 90.7226ZM701.836 46.3281C701.836 46.3281 701.836 92.6367 701.836 97.8515C698.555 93.75 663.203 46.3281 663.203 46.3281H643.203V140.605H663.477C663.477 140.605 663.477 88.8086 663.477 83.6133C666.758 87.7148 706.231 140.605 706.231 140.605H722.129V46.3281H701.836ZM583.731 121.406V101.68C585.645 101.68 615.527 101.68 615.527 101.68V83.5938C615.527 83.5938 585.391 83.5938 583.731 83.5938V65.5078C585.645 65.5078 624.024 65.5078 624.024 65.5078V46.3281H559.629V140.605H626.231L627.871 121.426C627.852 121.406 585.645 121.406 583.731 121.406ZM515.762 46.3281C515.762 46.3281 515.762 81.1328 515.762 82.7734H482.598C482.598 80.8594 482.598 46.3281 482.598 46.3281H458.75V140.605H482.598C482.598 140.605 482.598 103.613 482.598 101.699H515.762C515.762 103.613 515.762 140.605 515.762 140.605H539.61V46.3281H515.762ZM441.484 119.219C432.715 122.5 426.953 123.613 419.57 123.613C403.945 123.613 397.93 115.117 397.93 93.75C397.93 71.2695 403.692 62.7734 419.57 62.7734C426.973 62.7734 433.281 64.1406 440.938 67.168L442.305 67.7148V48.2617L441.758 47.9883C434.629 45.2539 427.227 44.1602 419.004 44.1602C406.133 44.1602 395.156 47.7148 387.207 54.8438C377.344 63.6133 372.676 75.9375 372.676 94.0234C372.676 109.375 375.684 120.059 382.539 128.281C390.488 137.598 402.539 142.539 418.164 142.539C426.934 142.539 435.156 140.898 442.285 137.324L442.832 137.051V118.691L441.484 119.219ZM338.731 84.1406L337.363 83.5938C327.774 79.4922 327.227 79.2187 325.039 77.5586C321.758 75.3711 320.938 73.457 320.938 70.7031C320.938 65.4883 325.039 63.0273 333.535 63.0273C340.938 63.0273 346.406 64.3945 354.902 68.2422L356.27 68.7891V49.0625L355.723 48.7891C347.5 45.7812 340.371 44.3945 332.422 44.3945C311.055 44.3945 298.711 54.8047 298.711 73.164C298.711 86.875 304.746 94.8047 320.645 101.113C337.363 108.242 339.004 109.883 339.004 115.098C339.004 121.133 334.063 124.141 324.199 124.141C315.703 124.141 309.395 122.5 299.805 117.559L298.438 116.738V136.465L298.984 136.738C307.754 140.84 315.703 142.5 325.84 142.5C349.414 142.5 362.285 132.09 362.285 113.184C361.738 98.6719 355.996 91.2695 338.731 84.1406Z" fill="black"/>
<path d="M73.1641 140.586H32.8906V29.5898H73.1836C101.406 29.5898 116.758 47.6758 116.758 84.668C116.465 116.484 106.328 140.312 73.1641 140.586ZM90.4297 86.875C90.4297 64.3945 88.2422 47.1289 64.3945 47.1289H59.1797V122.773H68.4961C82.4805 122.5 90.4297 111.27 90.4297 86.875ZM170.723 140.586H128.262V29.5898H172.656C193.75 29.5898 205 38.3594 205 59.1797C205 69.8633 196.23 77.8125 186.641 82.4805C200.078 86.3086 209.121 94.5312 209.121 108.516C209.102 130.996 190.469 140.586 170.723 140.586ZM154.297 73.457H163.34C171.836 73.457 178.145 69.6289 178.145 60.0195C178.145 49.6094 169.922 46.582 161.426 46.582H154.023V73.4375H154.297V73.457ZM181.152 107.715C181.152 96.4844 174.023 93.7305 163.613 93.7305H154.023V122.227H163.34C172.93 122.5 181.152 119.492 181.152 107.715ZM215.137 0H24.1211C10.9766 0 0 10.4101 0 24.1211V145.254C0 158.965 10.957 169.648 24.1211 169.648H215.137C228.008 169.648 238.984 158.965 238.984 145.254V24.1211C238.965 10.7031 228.008 0 215.137 0ZM221.426 145.527C221.426 149.355 218.965 152.383 215.117 152.383H24.1211C20.293 152.383 17.5391 149.375 17.5391 145.527V24.3945C17.5391 20.5664 20.2734 17.5391 24.1211 17.5391H215.137C218.965 17.5391 221.445 20.5469 221.445 24.3945V145.527" fill="#374151"/>
</svg>
