<svg width="1000" height="167" viewBox="0 0 1000 167" fill="none" xmlns="http://www.w3.org/2000/svg">
<path d="M114.562 13.9133L97.5748 45.4498C93.6209 42.288 89.2269 39.783 84.3928 37.9279C79.5723 36.0728 74.5216 35.125 69.2678 35.0776C65.0701 35.0776 61.0418 36.1676 57.1759 38.3409C53.31 40.5142 51.2315 43.7911 50.9607 48.1444C51.0622 51.164 52.1523 53.6352 54.2308 55.5647C56.316 57.4943 58.8075 59.0515 61.712 60.2228C64.6098 61.4008 67.345 62.3487 69.911 63.0799L80.7977 66.1942C92.497 69.2071 102.097 73.9666 109.633 80.4797C117.155 86.9929 121.054 96.4714 121.312 108.929C121.42 116.83 120.228 124.467 117.717 131.853C115.218 139.233 110.75 145.624 104.325 151.041C97.7914 156.193 90.4862 159.937 82.4091 162.293C74.332 164.649 66.0992 165.807 57.7175 165.773C47.3114 165.726 37.2033 164.155 27.393 161.054C17.5759 157.94 8.44944 153.573 0 147.933L18.2936 115.151C23.6286 119.728 29.4512 123.539 35.7679 126.586C42.0915 129.626 48.8889 131.217 56.1874 131.325C61.4345 131.359 66.1399 130.1 70.2969 127.568C74.4471 125.029 76.6475 121.021 76.8845 115.564C76.7423 111.793 75.1716 108.746 72.1994 106.417C69.2339 104.088 65.7472 102.253 61.7594 100.913C57.7581 99.579 54.1631 98.516 50.9607 97.7239C41.9831 95.4558 34.1701 92.8018 27.5351 89.7755C20.9069 86.7424 15.7615 82.4296 12.0987 76.8441C8.4359 71.2585 6.58758 63.4861 6.53342 53.5336C6.6282 42.8974 9.08585 33.6558 13.9131 25.8225C18.7336 17.9891 25.3822 11.9093 33.8655 7.61012C42.342 3.29739 52.1049 1.11056 63.1609 1.04962C71.6307 1.09701 80.4457 2.25475 89.5925 4.5296C98.7528 6.80445 107.067 9.93236 114.562 13.9133Z" fill="black"/>
<path d="M281.113 36.2823V75.2797H285.25C290.002 75.3609 294.627 74.9276 299.122 74.0068C303.624 73.0725 307.341 71.2107 310.286 68.3942C313.232 65.5777 314.762 61.3733 314.87 55.781C314.762 50.1819 313.238 45.9842 310.286 43.1677C307.335 40.3513 303.624 38.4894 299.122 37.5619C294.627 36.6343 290.002 36.2078 285.25 36.289H281.113V36.2823ZM323.367 97.4798L374.984 161.575H321.837L281.546 101.42H281.113V161.575H238.419V5.16559H302.236C313.157 5.14528 322.9 6.82433 331.451 10.2231C340.008 13.615 346.765 18.8688 351.714 25.971C356.664 33.0799 359.189 42.186 359.297 53.2962C359.257 64.3252 356.176 73.8917 350.069 81.9959C343.956 90.1068 335.053 95.2591 323.367 97.4798ZM197.16 39.6404V161.616H154.473V39.6404H119.192V5.20621H232.441V39.6404H197.16Z" fill="black"/>
<path d="M580.236 36.0587V66.3494H585.029C590.94 66.5457 596.207 65.6791 600.818 63.7496C605.428 61.8268 607.859 57.6427 608.109 51.1973C608.021 46.5122 606.728 43.0796 604.243 40.9063C601.759 38.7465 598.624 37.3722 594.853 36.8034C591.075 36.228 587.223 35.9775 583.282 36.0587H580.236ZM603.323 161.358H537.542V4.94203H598.529C613.336 4.766 625.11 7.81267 633.871 14.0685C642.625 20.3311 647.107 30.8387 647.317 45.5982C647.391 52.7003 646.044 58.9832 643.254 64.4537C640.472 69.9242 635.8 74.2843 629.233 77.5476V77.9674C640.932 79.5313 649.449 83.8102 654.825 90.804C660.201 97.7978 662.855 106.789 662.78 117.798C662.604 128.657 659.686 137.276 654.04 143.66C648.393 150.038 641.081 154.608 632.097 157.343C623.112 160.092 613.519 161.426 603.323 161.358ZM580.236 96.6333V130.242H585.679C590.073 130.357 594.88 130.194 600.107 129.761C605.327 129.334 609.843 127.94 613.661 125.604C617.473 123.254 619.47 119.267 619.66 113.647C619.49 107.493 617.493 103.221 613.661 100.844C609.849 98.4546 605.252 97.1276 599.883 96.8432C594.508 96.5589 589.416 96.4911 584.596 96.6333H580.236ZM466.31 103.322L448.883 53.5331H448.45L430.813 103.322H466.31ZM477.847 134.439H419.04L407.713 161.615H362.412L425.573 5.1993H472.187L534.041 161.615H488.517L477.847 134.439Z" fill="black"/>
<path d="M764.748 103.322L747.328 53.533H746.894L729.257 103.322H764.748ZM776.291 134.439H717.484L706.157 161.615H660.856L724.017 5.19928H770.631L832.485 161.615H786.961L776.291 134.439Z" fill="black"/>
<path d="M915.275 74.2779H1000C1000.03 85.6183 999.004 96.3358 996.926 106.43C994.847 116.525 990.291 126.417 983.236 136.098C975.078 146.721 965.2 154.514 953.616 159.463C942.025 164.405 929.317 166.856 915.498 166.795C898.166 166.687 882.953 163.2 869.859 156.321C856.759 149.436 846.535 139.829 839.176 127.486C831.816 115.151 828.072 100.73 827.944 84.2303C828.072 67.1893 831.844 52.3825 839.277 39.8031C846.725 27.2305 857.097 17.4744 870.414 10.5483C883.732 3.62216 899.27 0.108326 917.035 0C934.002 0 948.788 3.6357 961.408 10.9139C974.022 18.1988 983.913 29.1533 991.09 43.7773L950.576 59.9585C947.604 52.3892 943.101 46.3704 937.076 41.9087C931.05 37.4538 923.718 35.1721 915.079 35.0638C905.708 35.2263 897.855 37.7381 891.524 42.5586C885.187 47.3927 880.414 53.547 877.212 61.035C874.003 68.5095 872.398 76.3158 872.385 84.4402C872.405 92.6798 874.07 100.506 877.381 107.913C880.692 115.327 885.567 121.386 892.005 126.098C898.437 130.804 906.345 133.248 915.729 133.397C925.16 133.397 932.986 131.122 939.229 126.579C945.464 122.036 949.107 115.245 950.142 106.221H915.295V74.2779H915.275Z" fill="black"/>
</svg>
