<svg width="687" height="400" viewBox="0 0 687 400" fill="none" xmlns="http://www.w3.org/2000/svg">
<path d="M45.6619 227.279L46.0701 223.128L39.3334 216.799C28.5819 206.728 4.83333 185.634 2.85996 184.477C1.29486 183.524 0.274163 181.074 0.0019732 177.332C-0.0660743 176.924 1.63511 176.719 3.67653 176.787C5.71796 176.855 19.1233 177.4 33.4133 177.944C47.7713 178.557 60.2921 178.761 61.3128 178.557C63.4903 178.08 66.2802 175.767 66.2802 174.474C66.2802 173.249 67.9134 172.16 68.866 172.773C69.5465 173.181 69.3424 174.134 68.1175 176.992C67.2329 179.033 65.3276 183.796 63.8986 187.675C61.1086 195.296 59.6796 196.385 60.0199 190.669L60.224 187.267L56.6175 186.858C54.6441 186.654 49.8127 186.382 45.866 186.314L38.721 186.11L35.5228 193.935C33.7535 198.222 32.3245 202.509 32.3245 203.462C32.2565 204.823 33.6855 206.32 39.6737 211.151C43.6885 214.418 47.6352 217.072 48.3838 217.072C49.2003 217.072 50.0849 216.187 50.8335 214.69C51.9222 212.308 52.9429 211.764 53.6234 212.921C53.8276 213.261 52.8749 216.527 51.3778 220.27C49.9488 223.944 48.4518 227.891 48.1116 228.98C47.7713 230.137 46.9548 231.089 46.3423 231.225C45.3216 231.43 45.2536 230.953 45.6619 227.279ZM31.508 193.527C33.005 189.853 34.0257 186.586 33.8896 186.314C33.1411 185.157 9.52863 183.932 9.93691 185.089C10.3452 186.45 27.8334 201.285 28.3778 200.74C28.65 200.468 30.079 197.202 31.508 193.527Z" fill="#565658"/>
<path d="M635.157 223.74C633.933 220.27 632.027 215.506 631.007 213.193C629.442 209.722 629.305 208.838 630.054 208.225C630.802 207.613 631.347 208.021 632.776 210.199C633.728 211.764 634.749 212.989 635.021 212.989C635.702 212.989 649.447 202.033 650.74 200.536C651.557 199.515 651.285 198.427 649.107 192.37C647.678 188.56 646.045 184.545 645.501 183.456L644.548 181.483L634.953 181.891C623.113 182.299 622.637 182.435 623.249 185.702C623.521 187.063 623.726 188.424 623.794 188.764C623.862 189.172 623.453 189.512 622.841 189.648C622.092 189.853 621.548 189.308 621.208 188.015C621.004 186.995 619.507 182.912 618.01 179.101C616.036 173.998 615.492 171.82 616.036 171.276C616.444 170.867 616.853 170.663 616.989 170.867C617.057 171.003 618.009 172.364 618.962 173.929C620.459 176.311 621.208 176.787 623.725 177.196C625.359 177.468 639.104 177.604 654.279 177.536C680.137 177.4 682.042 177.468 684.084 178.693C685.24 179.373 686.193 180.258 686.193 180.666C686.193 181.074 675.918 189.921 663.329 200.4C650.74 210.879 640.057 220.27 639.513 221.291C638.968 222.311 638.628 224.557 638.764 226.326C639.036 231.566 637.607 230.545 635.157 223.74ZM663.737 190.193C668.092 186.654 672.243 183.184 672.924 182.367L674.149 181.006H662.172C655.572 181.006 650.06 181.279 649.856 181.619C649.311 182.503 654.551 196.657 655.436 196.657C655.64 196.657 659.314 193.731 663.737 190.193Z" fill="#565658"/>
<path d="M560.305 121.397C560.305 120.444 559.08 112.074 557.583 102.888C554.793 86.08 553.16 75.8049 551.119 62.9439C550.506 59.2013 549.962 56.0711 549.826 56.003C548.941 55.1184 530.296 85.6037 527.302 92.7487L526.281 95.2664L529.003 98.2606C531.589 101.05 532.406 102.752 531.113 102.752C530.296 102.752 513.08 91.8641 512.808 91.1836C512.4 89.9587 514.101 89.8226 516.142 90.8434C520.702 93.225 521.654 92.2043 537.441 67.0267C549.69 47.429 549.962 46.6125 545.539 42.0533C543.634 40.1479 543.225 39.2634 543.77 38.719C544.382 38.1065 546.083 38.8551 550.506 41.7811C553.773 43.8906 556.631 45.5918 556.903 45.5918C557.175 45.5918 557.583 48.7219 557.787 52.6006C558.196 61.0385 565.545 106.154 566.702 107.311C567.246 107.923 566.702 108.672 576.364 93.225C589.361 72.3344 590.11 70.225 585.823 66.9587C583.577 65.2575 582.829 63.7604 583.986 63.0119C584.258 62.8758 587.116 64.509 590.382 66.6185C593.648 68.796 597.663 71.3137 599.433 72.1983C602.291 73.7634 603.243 74.9883 601.95 75.8049C601.61 76.009 599.909 75.6007 598.14 74.9883L594.873 73.8315L592.015 77.0297C589.77 79.6155 568.879 112.278 563.912 120.92C562.415 123.642 560.305 123.914 560.305 121.397Z" fill="#565658"/>
<path d="M111.736 117.654C97.31 114.252 86.2182 97.2399 88.736 82.4055C91.0496 68.6599 101.665 57.5001 118.949 50.6954L124.733 48.4498L128.544 53.2132C130.653 55.799 132.559 58.3847 132.763 58.9291C133.375 60.5623 130.993 60.8345 129.36 59.3374C125.618 55.867 118.541 54.7782 113.097 56.9558C111.464 57.5682 108.47 59.2694 106.36 60.6303C91.3899 70.7013 91.3218 88.8701 106.156 103.909C112.621 110.509 117.724 113.027 124.937 113.027C133.375 113.095 138.887 110.917 145.011 105.27C148.686 101.867 148.754 100.302 145.283 94.7221C140.248 86.4884 139.227 86.012 133.715 88.5298C130.857 89.8227 128.884 89.8227 128.884 88.6659C128.884 88.3257 130.653 87.0327 132.831 85.8079C134.94 84.515 139.499 81.725 142.902 79.4795C146.304 77.302 149.298 75.5327 149.502 75.5327C150.523 75.5327 149.911 78.1185 148.618 79.2753C146.712 81.0446 146.917 82.1333 150.047 87.5091C153.177 92.7487 155.899 95.947 157.26 95.947C159.029 95.947 158.076 97.7843 154.266 101.527C145.283 110.237 135.757 116.021 127.659 117.654C123.44 118.539 115.343 118.539 111.736 117.654Z" fill="#565658"/>
<path d="M244.701 66.3463C244.769 65.6658 245.858 64.7812 246.946 64.4409C250.893 63.148 251.574 62.0593 251.097 57.5001C250.893 55.2545 250.213 50.9675 249.668 47.9734C249.124 44.9793 247.423 35.6568 245.926 27.2189C244.361 18.781 242.659 11.2278 242.115 10.4112C241.367 9.18634 240.482 8.84611 238.1 8.84611C235.582 8.84611 235.038 8.64197 235.038 7.62126C235.038 6.60055 236.263 6.12421 241.707 4.89936C260.216 0.748461 266.272 0.272136 272.532 2.6538C278.248 4.83132 281.106 8.71003 281.787 15.2426C282.263 19.9379 280.154 24.8373 276.071 28.5799C274.029 30.5533 273.213 31.7781 273.485 32.5947C274.097 34.6361 289.612 50.0148 293.967 52.9409C296.621 54.7101 299.071 55.7989 300.704 55.935C302.133 56.0711 303.426 56.4794 303.562 56.9557C303.97 58.1125 300.772 58.861 295.26 58.861C287.367 58.861 285.121 57.364 270.151 41.7131C265.251 36.6095 264.571 36.0651 262.189 36.0651C258.378 36.0651 256.133 37.0858 256.133 38.9231C256.133 41.9853 259.603 58.2486 260.624 59.7456C261.372 60.9024 262.257 61.2427 264.639 61.2427C267.769 61.2427 268.926 61.9912 267.497 63.08C267.088 63.4883 262.529 64.4409 257.494 65.3255C252.458 66.1421 247.423 67.0267 246.402 67.2309C244.769 67.5031 244.497 67.2989 244.701 66.3463ZM266.408 31.7101C272.26 29.2603 274.71 23.5444 273.145 16.0591C271.375 7.55319 263.822 3.26623 254.5 5.3757C250.553 6.32837 250.349 6.73664 251.301 12.0443C251.71 14.5621 252.662 20.142 253.411 24.3609C254.091 28.5799 254.908 32.3225 255.18 32.7308C255.793 33.7515 263.142 33.071 266.408 31.7101Z" fill="#565658"/>
<path d="M435.982 66.9588C435.506 66.7546 431.083 65.9381 426.116 65.1215C418.834 63.8966 416.997 63.3522 416.861 62.3996C416.657 61.4469 417.133 61.2428 419.719 61.2428C421.42 61.2428 422.985 60.9025 423.257 60.4943C423.938 59.4055 421.42 41.3048 420.468 40.2161C419.991 39.7397 415.636 38.5829 410.805 37.7664C402.639 36.2693 402.027 36.2693 400.938 37.29C399.033 39.2634 391.547 54.3019 391.956 55.4587C392.16 56.0031 393.589 56.8197 395.018 57.1599C397.604 57.9084 398.352 58.725 396.991 59.5416C396.651 59.7457 393.112 59.3374 389.166 58.5209C385.219 57.7723 381.068 57.1599 379.911 57.1599C378.414 57.1599 377.938 56.8197 377.938 55.799C377.938 54.6422 378.414 54.438 381.272 54.438C384.198 54.438 384.879 54.1658 386.58 52.1925C388.689 49.8108 414.411 7.14497 415.568 4.15088C416.181 2.58579 420.127 0 421.965 0C422.373 0 422.849 1.29289 423.053 2.92603C423.53 6.19232 425.503 19.1894 427.613 32.3226C428.361 37.222 429.586 45.1155 430.334 49.8788C432.036 60.9025 432.92 62.8759 436.867 64.3729C438.568 64.9854 439.793 65.87 439.657 66.2783C439.385 67.0949 437.275 67.5032 435.982 66.9588ZM419.787 34.7042C419.991 34.364 419.515 29.8729 418.766 24.7012C416.929 11.9764 416.657 10.8196 416.044 11.2278C415.228 11.7722 403.66 32.0504 404 32.3906C404.272 32.6628 416.725 35.1806 418.562 35.3167C418.97 35.3847 419.515 35.1125 419.787 34.7042Z" fill="#565658"/>
<path d="M316.559 399.439C312.204 399.167 304.923 398.554 300.364 398.078L292.198 397.193V395.152C292.198 394.063 293.967 388.824 296.077 383.516L299.887 373.921L300.432 362.013C300.976 348.744 301.997 343.572 306.08 334.454C309.21 327.241 309.686 325.063 310.911 311.658C312.204 297.3 312.884 294.169 316.083 287.297C321.118 276.409 322.275 272.054 322.819 261.643C323.296 253.477 323.704 251.027 325.813 244.495C327.106 240.276 328.059 236.329 327.855 235.785C326.698 232.859 321.458 236.601 318.532 242.385C317.58 244.359 315.947 248.918 314.994 252.456C311.523 265.317 309.006 272.258 306.284 276.817C299.411 288.113 296.145 298.797 294.58 314.584C293.559 325.539 292.878 327.717 286.482 339.897C279.473 353.099 278.452 356.637 275.867 375.963C274.642 385.285 273.077 392.974 272.192 393.791C271.58 394.403 241.571 387.871 240.618 386.85C240.414 386.714 241.094 384.741 242.047 382.631C244.088 377.936 245.313 373.241 247.287 362.693C250.008 347.859 252.322 342.143 259.263 333.637C263.958 327.853 266.748 321.184 270.423 306.962C275.118 288.521 277.432 283.214 283.896 276.069C290.293 269.06 293.967 262.459 298.458 250.415C299.887 246.468 301.861 241.705 302.881 239.731C305.331 235.036 304.583 234.015 300.023 235.853C292.878 238.711 288.728 244.223 283.42 257.832C279.881 266.882 278.248 269.604 272.736 275.592C264.843 284.166 261.1 290.835 253.683 309.276C248.511 322.341 246.47 325.948 240.686 332.14C228.71 345.069 226.668 348.403 221.497 363.578C219.659 368.954 217.55 374.602 216.733 376.167L215.304 378.957L211.766 377.732C203.464 374.874 183.798 366.028 183.05 364.803C182.846 364.463 185.567 361.332 189.174 357.862C196.659 350.513 199.041 347.042 201.286 340.374C203.668 333.433 206.594 329.486 217.073 318.735C226.94 308.664 227.417 308.051 231.636 297.3C237.692 282.125 239.393 279.675 252.118 267.631C254.976 264.977 257.085 261.915 260.896 254.838C263.686 249.734 267.225 244.018 268.858 242.181C270.831 239.868 271.784 238.098 271.784 236.805C271.784 234.015 269.946 233.743 265.319 235.717C259.671 238.234 253.411 244.903 247.287 254.838C240.278 266.27 240.006 266.61 228.846 277.634C219.387 287.024 218.707 287.841 215.372 294.646C213.399 298.593 210.949 302.675 209.997 303.764C208.976 304.853 204.757 308.255 200.538 311.453C191.215 318.394 189.991 319.823 186.248 327.853C181.825 337.448 179.92 339.829 173.183 344.184C169.985 346.226 166.038 349.016 164.405 350.309L161.479 352.622L157.6 350.036C152.837 346.77 141.132 337.448 139.908 336.019C139.159 335.066 139.227 334.862 140.452 334.454C143.31 333.569 150.387 325.539 153.381 319.755C156.988 312.814 158.961 310.909 169.712 304.309C180.26 297.844 184.615 293.557 192.304 282.057C199.177 271.714 203.736 266.882 209.452 263.888C212.106 262.459 215.849 259.465 219.727 255.518C226.124 249.19 235.31 237.078 234.63 235.989C234.426 235.649 233.269 235.581 232.112 235.853C227.008 236.941 223.062 239.731 214.624 248.305C207.139 255.927 205.437 257.288 200.266 259.805C192.917 263.412 188.357 267.495 179.443 278.45C175.496 283.214 171.346 287.909 170.189 288.794C168.964 289.746 164.405 292.128 160.05 294.238C152.564 297.708 151.476 298.456 144.331 305.397C136.369 313.019 129.428 318.054 126.026 318.871C124.597 319.143 123.644 318.939 122.624 317.986C120.786 316.353 110.511 300.838 110.511 299.681C110.511 298.252 114.322 294.238 118.2 291.72C120.174 290.427 125.413 287.705 129.905 285.732C137.798 282.193 138.343 281.785 148.005 272.871C158.076 263.616 159.233 262.8 169.78 258.036C173.047 256.539 177.606 254.021 179.988 252.388C185.023 248.986 197.612 237.01 197.612 235.649C197.612 234.083 193.733 234.628 189.31 236.873C186.86 238.098 183.254 240.888 180.328 243.746C174.135 249.939 170.529 252.184 160.594 256.131C156.171 257.9 151.135 260.282 149.502 261.371C146.032 263.752 140.656 266.27 134.056 268.516C131.402 269.4 126.162 272.054 122.283 274.3C113.709 279.403 107.789 281.853 104.863 281.581C102.754 281.377 102.618 281.172 101.461 276.613C99.6235 269.332 98.5347 259.397 99.4874 258.445C99.8957 258.036 101.937 257.424 104.047 257.152C108.061 256.607 109.831 255.859 117.86 251.095C122.079 248.578 124.121 247.897 132.422 246.264C142.902 244.087 147.665 242.317 151.544 238.847C154.47 236.329 154.742 234.968 152.428 234.356C150.523 233.879 148.55 234.424 139.091 238.03C135.144 239.527 129.973 241.16 127.523 241.569C125.073 242.045 120.514 243.134 117.316 244.018C111.6 245.652 105.952 246.06 101.733 245.243C99.2832 244.767 99.2833 245.311 101.461 235.649C102.481 231.225 102.754 230.681 104.387 230.341C105.408 230.137 114.186 229.933 123.848 229.933C133.579 229.933 145.283 229.865 149.979 229.797C156.851 229.66 159.846 230.001 165.766 231.294L173.115 232.995L182.437 231.362C198.292 228.708 199.994 228.572 204.281 229.66C209.384 231.021 217.142 230.953 227.689 229.524C235.991 228.436 236.807 228.436 245.041 229.592C253.343 230.749 254.091 230.749 260.828 229.66C268.381 228.368 279.133 228.572 284.236 230.001C286.074 230.545 288.251 230.545 291.722 230.069C301.657 228.64 305.399 228.504 310.231 229.524C313.769 230.273 317.988 230.409 326.562 230.205C333.775 230.001 339.695 230.137 342.213 230.613C345.275 231.226 348.337 231.157 354.598 230.545C361.811 229.865 363.512 229.865 368.207 230.885C372.358 231.77 374.331 231.906 377.462 231.362C379.571 230.953 382.973 230.409 385.015 230.069C387.737 229.592 389.778 229.66 392.704 230.341C397.808 231.566 406.994 231.566 412.642 230.341C418.562 229.048 425.503 229.048 430.198 230.409C433.26 231.294 435.506 231.43 442.175 231.021C456.465 230.137 463.746 230.273 471.775 231.634C478.988 232.791 479.873 232.791 484.024 231.77C491.849 229.933 493.687 229.865 502.941 231.294C514.169 233.063 517.912 233.063 523.9 231.362C530.977 229.252 540.639 228.912 550.438 230.341C556.358 231.226 560.85 231.43 566.77 231.157C575.071 230.749 580.924 231.294 582.148 232.518C583.101 233.471 584.53 239.255 585.143 244.223L585.619 248.305L582.965 247.897C581.536 247.693 578.27 246.808 575.684 245.924C573.098 245.039 570.036 244.291 568.947 244.291C567.79 244.291 564.864 243.406 562.415 242.317C559.965 241.228 555.202 239.731 551.799 238.915C548.465 238.098 543.77 236.941 541.456 236.329C538.122 235.376 537.033 235.308 536.352 235.989C535.74 236.601 535.808 237.214 536.897 238.643C539.278 241.909 543.497 243.678 551.935 245.107C560.986 246.604 562.415 247.081 568.403 250.959C573.642 254.362 579.222 256.539 582.761 256.539C584.19 256.539 585.551 256.743 585.687 257.016C586.163 257.764 584.87 270.625 584.122 273.755C581.808 282.601 582.284 281.785 579.495 281.308C575.071 280.492 570.989 278.655 564.388 274.436C555.678 268.924 551.867 267.087 547.24 266.066C544.45 265.521 541.524 264.092 537.169 261.234C529.616 256.267 525.261 254.089 521.926 253.477C518.796 252.865 513.761 249.462 507.364 243.746C500.764 237.826 499.539 236.942 496 235.376C492.326 233.743 490.216 234.152 490.216 236.533C490.216 238.915 499.471 248.305 506.412 252.933C509.542 255.042 516.755 258.853 522.403 261.439C534.243 266.814 535.536 267.699 542.953 275.32C548.805 281.377 554.385 285.8 555.95 285.8C557.719 285.8 567.926 290.971 572.009 293.965L575.956 296.755L574.187 300.294C571.805 304.989 563.027 317.85 561.938 318.258C559.761 319.075 554.181 315.196 545.675 306.894C534.651 296.143 533.29 295.122 523.083 289.95C513.489 284.983 508.453 280.764 504.03 274.095C500.628 268.924 496.681 265.794 486.678 260.282C480.349 256.811 477.151 254.021 469.598 245.447C463.474 238.507 459.595 235.853 455.58 235.785C451.225 235.785 451.293 237.146 455.716 241.977C457.69 244.223 460.207 247.489 461.296 249.394C464.222 254.498 468.441 258.649 478.648 266.338C489.74 274.776 492.19 277.43 497.157 285.868C501.784 293.761 506.48 298.32 516.142 304.309C524.852 309.684 529.276 313.699 533.971 320.368C536.012 323.226 539.755 327.581 542.341 329.962L546.968 334.318L543.974 336.971C539.21 341.122 526.758 350.445 525.873 350.445C524.376 350.445 510.222 340.51 506.888 337.175C504.983 335.27 502.873 332.344 502.193 330.711C497.497 319.551 494.231 315.741 483.343 308.528C475.178 303.152 472.864 300.498 468.033 290.971C464.358 283.758 463.746 282.942 454.491 273.891C444.488 264.024 440.61 259.397 437.547 253.273C435.234 248.714 425.503 238.847 421.352 236.873C417.746 235.172 415.16 235.172 414.82 236.942C414.547 238.166 423.734 253.273 428.837 260.078C430.471 262.255 434.009 265.998 436.595 268.311C444.42 275.32 447.687 280.424 454.151 295.667C459.663 308.8 461.364 311.454 468.713 318.462C485.317 334.249 486.065 335.202 489.74 344.661C491.577 349.56 494.98 354.8 499.675 360.107C501.58 362.217 503.145 364.054 503.145 364.19C503.145 364.735 487.29 372.084 478.648 375.554C472.524 378.072 470.006 378.753 469.326 378.276C467.693 376.915 465.039 370.519 463.337 363.714C460.888 354.255 456.601 345.886 450.613 338.945C437.003 323.226 436.595 322.545 432.036 307.575C427.681 293.149 423.53 284.711 417.746 278.791C412.234 273.075 410.192 269.945 403.456 256.675C396.379 242.521 389.846 235.444 384.062 235.444C381.544 235.444 381.476 236.397 383.45 240.412C384.266 241.977 386.104 246.808 387.464 251.095C391.411 263.276 393.997 267.903 402.911 278.246C410.464 287.024 411.553 289.27 415.432 304.649C420.672 325.607 421.488 327.717 428.701 337.652C434.689 346.09 438.024 355.276 440.882 371.539C441.358 374.466 442.719 378.889 443.876 381.406C445.509 385.013 445.781 386.17 445.169 386.578C444.216 387.19 426.864 391.409 420.468 392.634C418.222 393.042 415.908 393.519 415.296 393.723C413.527 394.199 412.03 388.824 411.213 379.093C410.396 369.498 408.559 362.353 404.476 353.031C396.787 335.678 395.562 332.684 393.997 327.036C392.908 323.43 392.228 319.347 392.228 316.761C392.228 311.113 390.527 301.655 388.349 295.394C386.648 290.291 381.408 279.267 376.781 271.033C375.012 267.767 373.991 264.433 372.358 256.743C371.269 251.231 369.704 245.243 368.956 243.474C367.39 239.868 362.831 235.24 361.062 235.581C359.225 235.921 359.293 240.004 361.334 245.652C362.967 250.211 363.24 252.048 363.58 262.731L363.988 274.64L366.846 280.152C372.834 291.584 374.876 299.749 375.624 315.468C376.101 325.471 376.032 325.131 382.361 342.279C383.926 346.566 384.334 349.016 384.811 357.59C385.423 369.634 386.376 373.853 390.799 384.4C392.636 388.756 394.337 393.247 394.609 394.471C395.018 396.513 394.882 396.649 392.772 397.057C388.213 397.806 378.074 398.758 370.453 399.099C366.166 399.303 361.811 399.643 360.79 399.779C358.272 400.187 357.592 398.827 356.775 391.409C356.299 387.122 356.367 382.699 356.979 375.282C358.544 357.522 358.204 353.711 354.461 341.939C351.399 332.48 351.127 331.187 351.127 324.587C351.127 319.823 351.535 315.604 352.352 311.998C353.509 307.235 353.577 305.806 352.896 300.43C352.488 297.096 351.059 290.087 349.698 284.983C347.044 274.572 346.84 271.986 347.521 255.518C347.997 245.311 347.929 243.542 346.84 240.616C345.139 235.853 343.71 235.172 341.192 237.962C338.13 241.365 337.381 246.196 338.334 256.131C339.763 270.217 339.219 276.477 335.68 290.563L333.707 298.388L334.455 308.528C334.864 314.107 335.068 322.205 334.864 326.56C334.592 333.433 334.251 335.406 332.074 341.531C327.447 354.596 326.562 363.102 328.603 373.921C329.896 380.386 330.713 394.063 330.032 397.602C329.488 400.46 330.713 400.324 316.559 399.439Z" fill="#C94B54"/>
<path d="M106.02 221.427C106.224 220.814 106.428 220.202 106.428 220.066C106.428 219.93 212.651 219.793 342.553 219.793C578.202 219.793 578.678 219.793 578.678 221.154C578.678 222.515 578.202 222.515 342.145 222.515C126.707 222.515 105.612 222.447 106.02 221.427Z" fill="#3C93CF"/>
<path d="M111.464 210.539C111.668 209.927 111.872 209.314 111.872 209.178C111.872 209.042 215.44 208.906 342.077 208.906C574.255 208.906 573.915 208.906 573.915 211.083C573.915 211.356 469.802 211.628 342.485 211.628C131.742 211.628 111.056 211.56 111.464 210.539Z" fill="#3C93CF"/>
<path d="M117.996 200.536C117.996 200.06 118.337 199.311 118.813 198.835C119.425 198.222 170.053 198.018 342.281 198.018C543.838 198.018 565.069 198.086 566.021 199.107C566.634 199.651 567.11 200.468 567.11 200.808C567.11 201.148 480.281 201.421 342.553 201.421C158.757 201.421 117.996 201.285 117.996 200.536Z" fill="#3C93CF"/>
<path d="M126.162 189.989C126.162 187.811 126.026 187.811 342.689 187.811C556.835 187.811 557.515 187.811 558.264 189.172C559.012 190.533 558.808 190.533 342.553 190.533C223.538 190.533 126.162 190.261 126.162 189.989Z" fill="#3C93CF"/>
<path d="M136.369 179.782C136.369 179.441 136.914 178.693 137.594 178.08C138.751 176.992 153.994 176.924 342.689 176.924C539.279 176.924 546.492 176.992 547.58 178.148C548.261 178.829 548.737 179.645 548.737 179.85C548.737 180.122 455.988 180.326 342.553 180.326C229.118 180.326 136.369 180.054 136.369 179.782Z" fill="#3C93CF"/>
<path d="M147.937 169.166C147.937 169.03 148.958 168.214 150.251 167.465L152.497 166.036H342.621H532.746L534.787 167.737L536.829 169.37L342.417 169.438C235.446 169.438 147.937 169.302 147.937 169.166Z" fill="#3C93CF"/>
<path d="M342.213 158.687C163.384 158.551 163.248 158.551 165.289 157.19C167.331 155.829 168.896 155.829 342.349 155.829C507.773 155.829 517.435 155.897 519.409 157.054C520.566 157.666 521.518 158.415 521.518 158.755C521.518 159.027 521.45 159.163 521.382 159.095C521.246 158.959 440.678 158.823 342.213 158.687Z" fill="#3C93CF"/>
<path d="M184.002 146.642L187.065 145.009L342.417 144.941C496.953 144.941 497.77 144.941 500.423 146.302C501.92 147.051 503.145 147.867 503.145 148.003C503.145 148.207 430.675 148.344 342.077 148.344L180.94 148.276L184.002 146.642Z" fill="#3C93CF"/>
<path d="M207.479 136.095C210.065 134.87 215.236 134.802 341.737 134.802C461.092 134.734 473.613 134.802 476.675 135.823C478.512 136.435 480.009 137.048 480.009 137.184C480.009 137.32 418.086 137.456 342.417 137.388C207.887 137.388 204.825 137.32 207.479 136.095Z" fill="#3C93CF"/>
<path d="M341.532 126.568C283.828 126.364 237.624 125.956 238.781 125.684C239.938 125.343 241.707 124.799 242.796 124.459C243.952 124.119 284.849 123.846 341.805 123.846C430.403 123.846 439.249 123.914 443.74 125.003C446.462 125.616 448.503 126.364 448.299 126.704C448.095 126.977 447.55 127.181 447.142 127.113C446.666 126.977 399.169 126.772 341.532 126.568Z" fill="#3C93CF"/>
<path d="M281.515 116.633C281.719 116.429 285.053 115.749 288.932 115.204C294.512 114.32 304.515 114.048 338.13 113.843C374.536 113.571 381.749 113.707 390.867 114.66C396.651 115.34 401.891 116.089 402.435 116.429C402.979 116.769 376.101 117.042 342.281 117.042C308.597 117.042 281.242 116.838 281.515 116.633Z" fill="#3C93CF"/>
</svg>
