<svg width="1000" height="249" viewBox="0 0 1000 249" fill="none" xmlns="http://www.w3.org/2000/svg">
<path d="M91.1297 131.279H56.9842L75.1701 71.9431L91.1297 131.279ZM39.2736 196.668L50.9306 157.594H96.9332L107.84 196.568H150.365L108.115 47.9787C105.613 39.1984 100.36 35.146 91.1297 35.146H30.8185V49.1794H35.8215C42.1253 49.1794 45.5273 51.6809 45.5273 56.4588C45.5273 59.6357 44.8269 62.2873 42.3254 69.5166L0 196.668H39.2736Z" fill="#003781"/>
<path d="M199.57 196.668V47.5284C199.57 39.7488 195.017 35.146 187.487 35.146H150.09V49.1794H152.591C158.87 49.1794 161.547 51.856 161.547 58.2098V196.668H199.57Z" fill="#003781"/>
<path d="M264.209 196.668V47.5284C264.209 39.7488 259.581 35.146 252.101 35.146H214.829V49.1794H217.33C223.634 49.1794 226.311 51.856 226.311 58.2098V196.668H264.209Z" fill="#003781"/>
<path d="M330.523 49.8798C330.523 39.0483 322.494 32.3693 308.735 32.3693C294.977 32.3693 286.897 38.9232 286.897 49.8798C286.897 60.8363 295.177 67.3903 308.735 67.3903C322.294 67.3903 330.523 60.8864 330.523 49.8798ZM329.798 196.668V87.9526C329.798 80.198 325.195 75.6202 317.666 75.6202H280.869V89.3785H283.045C289.324 89.3785 292 92.2802 292 98.584V196.668H329.798Z" fill="#003781"/>
<path d="M413.047 138.533V162.072C406.719 168.601 399.014 172.604 392.485 172.604C385.956 172.604 383.28 169.252 383.28 160.096C383.28 150.941 385.181 147.063 391.985 144.437C398.76 141.679 405.826 139.698 413.047 138.533ZM361.917 110.266C373.537 104.501 386.251 101.278 399.214 100.81C409.42 100.81 413.047 104.438 413.047 115.019V117.721C397.563 120.222 392.71 121.173 383.98 123.099C379.09 124.176 374.303 125.674 369.671 127.576C354.387 133.705 347.158 145.512 347.158 163.648C347.158 186.662 357.164 197.769 377.651 197.769C384.62 197.797 391.531 196.498 398.013 193.941C403.894 191.265 409.361 187.761 414.248 183.535V185.236C414.248 192.741 418.101 196.568 425.63 196.568H460.276V183.635H458.575C452.046 183.635 449.644 180.708 449.644 172.979V115.319C449.644 84.5757 438.963 73.8693 408.17 73.8693C398.407 73.9179 388.682 75.0676 379.177 77.2963C370.197 79.2989 361.547 82.5668 353.487 87.0021L361.917 110.266Z" fill="#003781"/>
<path d="M515.434 196.668V114.819C521.763 107.79 528.267 104.613 535.772 104.613C543.801 104.613 545.778 107.79 545.778 119.972V196.668H583.55V114.369C583.55 95.2071 582.175 89.1534 576.046 82.6495C571.043 77.0211 563.213 74.1694 553.232 74.1694C538.448 74.1694 528.042 78.7472 514.059 91.83V87.0021C514.059 79.4976 510.131 75.6203 502.402 75.6203H466.505V89.3786H468.681C474.96 89.3786 477.662 92.2803 477.662 98.5841V196.668H515.434Z" fill="#003781"/>
<path d="M695.592 171.253H642.885L693.291 100.585V75.5703H614.243C605.288 75.5703 601.16 79.6728 601.16 88.6532V110.666H615.194V108.515C615.194 102.937 618.096 100.285 624.124 100.285H651.29L600.36 171.753V196.768H695.417L695.592 171.253Z" fill="#003781"/>
<path d="M893.886 193.591V56.7341C893.886 45.8275 890.009 42.1503 879.428 42.1503H847.383V57.5345H849.31C856.614 57.5345 858.04 59.1855 858.04 67.9908V193.591H893.886ZM909.696 193.591H945.267V87.0022C945.267 76.2958 941.14 72.4435 930.708 72.4435H909.696V193.591ZM842.33 193.591V72.5435H821.243C810.811 72.5435 806.734 76.3958 806.734 87.1023V193.591H842.33ZM978.937 124.024C978.937 184.336 935.561 228.187 876.001 228.187C816.44 228.187 772.964 184.336 772.964 124.024C772.964 63.7132 816.415 19.8619 876.001 19.8619C935.586 19.8619 978.937 63.9634 978.937 124.024ZM1000 124.024C1000 53.1069 946.943 0 876.001 0C805.058 0 751.951 53.1069 751.951 124.024C751.951 194.942 805.008 248.024 876.001 248.024C946.993 248.024 1000 195.117 1000 124.024Z" fill="#003781"/>
</svg>
