<svg width="606" height="400" viewBox="0 0 606 400" fill="none" xmlns="http://www.w3.org/2000/svg">
<path d="M12.708 351.482C18.726 372.89 30.9176 400 30.9176 400C30.9176 400 130.248 344.494 263.677 353.709C293.988 355.87 320.598 364.27 320.598 364.27C320.598 364.27 266.217 328.665 255.31 325.217C202.933 312.116 153.096 308.292 123.603 307.227C123.603 307.227 51.2284 315.564 12.708 351.482ZM587.743 310.737C560.85 329.041 506.876 349.351 423.627 328.351C415.665 326.253 408.08 324.247 400.746 321.99C348.213 299.236 294.866 274.538 273.239 258.49C333.449 267.956 436.603 277.045 587.681 250.529C587.681 250.529 596.081 271.371 600.908 297.543L587.743 310.737Z" fill="#ED1C24"/>
<path d="M600.298 297.678C596.918 300.838 594.006 303.092 587.121 307.662C560.27 325.973 506.413 349.415 423.294 328.445C415.641 326.466 408.025 324.348 400.449 322.092C324.653 299.774 278.804 270.698 177.847 258.396C91.8491 260.838 37.8968 270.415 0 284.094C1.94028 312.389 8.10411 333.798 13.0187 351.544C20.2165 347.976 73.26 320.778 123.74 307.319C147.399 300.934 172.778 296.739 196.031 298.084C273.642 303.029 336.232 343.251 405.644 375.927C453.838 389.416 557.203 398.15 602.989 382.781C602.989 382.781 609.311 347.069 600.298 297.678Z" fill="#FFC50B"/>
<path d="M517.118 246.461H471.602L488.131 143.52C491.512 126.682 489.1 120.297 481.432 120.297C465.935 120.297 437.982 161.297 431.564 201.454L424.334 246.461H378.881L395.877 143.52C399.258 126.682 396.912 120.297 389.178 120.297C373.684 120.297 346.513 160.767 339.062 200.483L330.327 246.461H284.874L309.449 117.387V116.386C302.061 115.071 291.01 113.694 281.213 113.006L287.629 81.6124C311.795 78.8907 334.71 77.5437 359.911 78.5778C357.218 91.723 352.836 106.871 347.106 121.707L347.795 121.737C362.946 95.7592 379.068 75.8235 408.649 75.8235C428.496 75.8235 441.393 86.2771 441.393 108.874C441.393 112.911 440.391 117.262 438.701 124.023L439.047 124.336C454.478 96.3551 473.26 75.8235 502.781 75.8235C535.4 75.8235 542.003 99.4523 535.963 130.783L517.118 246.461ZM241.332 246.428L195.566 246.461C197.599 234.347 201.544 220.921 207.929 203.082H207.241C192.874 227.306 172.368 250.53 146.419 250.53C119.841 250.53 106.505 233.316 106.505 197.29C106.505 133.88 139.312 75.8235 212.971 75.8235C216.978 75.8235 221.014 76.1991 227.4 77.1681L234.758 38.391V38.1081C227.37 36.7635 216.351 35.4164 206.522 34.7279L212.971 3.3046C236.261 1.05114 260.144 -0.731604 288.037 0.299981L241.332 246.428ZM204.11 113.975C172.839 113.975 154.433 158.138 154.433 189.185C154.433 201.922 157.626 207.619 164.355 207.619C182.168 207.619 212.249 156.322 218.197 124.303L219.795 116.073C215.412 115.071 210.496 113.975 204.11 113.975Z" fill="#143F90"/>
</svg>
