<svg width="1000" height="243" viewBox="0 0 1000 243" fill="none" xmlns="http://www.w3.org/2000/svg">
<path d="M30.3268 240.965C12.5621 237.412 0 220.155 0 199.218C0 185.006 11.8008 129.048 17.2571 117.374C25.1243 100.624 39.4629 86.92 55.7048 80.8292C62.9376 78.0376 64.714 78.0376 139.833 77.4032L216.602 76.7687L224.342 38.7016L231.955 0.634563L260.252 0.253888C286.772 0.000107549 288.422 0.126998 287.787 2.15724C287.406 3.42615 286.645 7.61353 285.884 11.4202C285.249 15.2269 279.412 43.7773 273.068 74.8654C266.723 105.953 258.983 144.147 255.811 159.755C252.639 175.362 249.593 189.067 248.959 190.209C248.451 191.351 234.366 202.009 217.871 213.81C201.375 225.738 186.021 236.777 183.864 238.554L179.93 241.726L108.237 241.98C67.6325 241.98 33.7528 241.599 30.3268 240.965ZM199.218 161.024C202.263 146.305 204.42 133.869 204.04 133.489C203.659 133.108 194.015 132.854 182.722 132.981C171.302 132.981 140.341 133.108 113.694 133.108L65.4754 133.235L60.146 159.628C57.2275 174.094 54.8166 186.529 54.8166 187.163C54.8166 187.925 80.8291 188.305 124.226 188.178L193.635 187.925L199.218 161.024Z" fill="#004587"/>
<path d="M295.02 241.091C282.712 238.554 273.702 231.194 267.485 218.251C261.648 205.816 262.028 196.299 270.149 157.598C277.382 123.337 280.935 113.947 291.213 101.258C298.065 92.8836 311.389 83.7475 321.286 80.3215C327.758 78.1644 333.975 78.0375 410.744 78.0375C488.781 78.0375 493.603 78.1644 499.44 80.4484C512.256 85.3971 521.773 97.8324 524.184 112.679C525.58 121.688 524.564 130.57 519.235 156.075C517.078 166.226 514.794 177.393 514.159 180.819C513.398 184.372 512.51 188.178 512.129 189.32C511.622 191.097 478.249 215.84 448.176 237.031L440.436 242.36L370.393 242.233C331.818 242.107 297.938 241.599 295.02 241.091ZM463.276 161.151C466.322 146.431 468.479 134.123 468.225 133.869C467.591 133.235 330.042 132.854 329.661 133.489C329.027 134.631 318.875 187.036 319.383 187.671C319.637 188.051 350.852 188.305 388.792 188.178L457.693 187.924L463.276 161.151Z" fill="#004587"/>
<path d="M516.697 239.95C516.697 237.919 536.619 138.184 543.979 103.416C544.994 98.5937 549.816 74.6115 554.764 50.1217C559.586 25.7587 563.9 4.44116 564.281 2.79158C564.916 -3.93289e-06 564.916 0 592.831 0C608.185 0 620.747 0.380669 620.747 0.76134C620.747 1.52268 619.351 8.37476 603.109 87.935C598.415 111.41 594.735 130.697 594.989 130.697C595.877 130.697 601.079 127.779 601.714 126.89C602.094 126.51 607.17 122.703 613.134 118.389C619.098 114.201 634.451 103.289 647.267 94.0257L670.615 77.4031L711.347 77.6568C737.486 77.9106 752.079 78.5451 751.952 79.3064C751.952 80.0678 746.749 84.2551 740.532 88.8232C734.187 93.3912 710.332 110.521 687.618 126.89C664.778 143.259 646.252 156.963 646.379 157.471C646.633 157.978 658.814 168.891 673.534 181.707C688.253 194.396 707.921 211.526 717.311 219.774C739.263 238.807 740.278 239.696 739.39 241.218C738.882 241.853 722.133 242.36 698.404 242.36C665.413 242.36 657.672 241.98 655.515 240.584C654.119 239.569 637.877 225.611 619.478 209.496C600.952 193.381 585.599 180.692 585.091 181.199C584.584 181.707 582.046 192.112 579.508 204.293C577.097 216.475 574.178 229.925 573.29 234.113L571.768 241.726L544.232 242.107C517.585 242.36 516.697 242.36 516.697 239.95Z" fill="#004587"/>
<path d="M767.052 241.091C748.526 237.412 735.964 220.535 735.964 199.218C735.837 190.716 744.085 145.924 749.033 127.652C754.49 107.476 774.665 86.2853 793.952 80.3215C801.058 78.1644 807.53 78.0375 885.948 78.0375C969.695 78.0375 970.33 78.0375 976.294 80.8291C991.267 87.6811 999.007 99.8626 999.895 118.008C1000.4 127.778 999.388 133.996 989.49 182.595C983.4 212.16 978.197 237.792 977.817 239.315L977.055 242.36H948.632C933.024 242.36 920.208 241.98 920.208 241.599C920.208 241.091 925.03 216.729 930.994 187.417C936.958 158.105 941.653 133.996 941.399 133.742C940.638 132.981 804.357 133.108 803.596 133.869C802.835 134.757 792.049 186.909 792.557 187.417C792.684 187.544 819.204 187.798 851.434 187.798C891.785 187.924 910.311 188.432 910.945 189.447C911.326 190.082 910.057 192.112 908.027 193.761C896.607 203.024 849.657 239.442 847.373 240.711C844.328 242.487 775.934 242.741 767.052 241.091Z" fill="#004587"/>
</svg>
