<svg width="719" height="400" viewBox="0 0 719 400" fill="none" xmlns="http://www.w3.org/2000/svg">
<path fill-rule="evenodd" clip-rule="evenodd" d="M358.974 0C557.17 0 718.032 89.6184 718.032 200.008C718.032 310.415 557.17 400 358.974 400C160.862 400 0 310.415 0 200.008C0 89.6184 160.862 0 358.974 0ZM358.974 18.0406C170.884 18.0406 18.1241 99.7244 18.1241 200.008C18.1241 300.334 170.884 381.826 358.974 381.826C547.064 381.826 699.825 300.334 699.825 200.008C699.825 99.7244 547.064 18.0406 358.974 18.0406ZM295.916 219.21H225.257C226.092 236.599 235.864 244.659 250.48 244.659C261.338 244.659 268.771 238.545 270.692 232.39H293.828C287.898 253.429 270.692 263.167 249.478 263.167C219.41 263.167 200.702 242.479 200.702 212.929C200.702 184.306 220.496 162.507 249.478 162.507C282.051 162.507 297.753 189.844 295.916 219.21ZM248.81 180.531C234.11 180.531 226.593 190.312 225.424 202.823H271.277C269.523 189.468 263.927 180.531 248.81 180.531ZM601.854 219.21H531.195C531.947 236.599 541.802 244.659 556.335 244.659C567.276 244.659 574.71 238.545 576.631 232.39H599.766C593.836 253.429 576.631 263.167 555.416 263.167C525.265 263.167 506.64 242.479 506.64 212.929C506.64 184.306 526.434 162.507 555.416 162.507C587.99 162.507 603.691 189.844 601.854 219.21ZM554.665 180.531C540.048 180.531 532.532 190.312 531.279 202.823H577.215C575.461 189.468 569.865 180.531 554.665 180.531ZM77.0901 260.578H103.316V203.692H159.943V260.578H186.169V128.456H159.943V182.552H103.316V128.456H77.0901V260.578ZM310.365 260.578H335.087V208.928C335.087 189.535 341.936 181.592 356.135 181.592C368.329 181.592 373.841 189.351 373.841 205.045V260.578H398.48V201.846C398.48 178.209 391.464 162.507 363.484 162.507C352.46 162.507 340.934 167.686 334.336 178.393H333.751V165.097H310.365V260.578ZM419.527 260.578H444.166V208.87L480.581 260.578H511.234L471.143 206.999L506.64 165.097H477.241L444.166 206.264V128.456H419.527V260.578ZM616.303 260.578H640.942V128.456H616.303V260.578Z" fill="#EC1B23"/>
</svg>
