<svg width="1000" height="400" viewBox="0 0 1000 400" fill="none" xmlns="http://www.w3.org/2000/svg">
<path d="M1000 177.8C1000 187.572 985.273 195.496 967.107 195.496C948.941 195.496 934.213 187.572 934.213 177.8C934.213 168.044 948.941 160.113 967.107 160.113C985.273 160.113 1000 168.044 1000 177.8Z" fill="black"/>
<path d="M130.033 275.759C60.4665 268.144 17.4843 251.867 2.25401 227.384C7.85791 256.758 17.4519 304.93 25.1238 332.009C26.7863 337.848 29.4869 344.02 33.5012 350.483C51.278 379.184 78.6163 391.243 127.065 396.547C138.597 397.812 149.553 398.672 159.277 399.264L134.858 276.286C133.301 276.108 131.695 275.946 130.033 275.759ZM68.033 255.663L216.881 138.2L193.362 0C193.362 0 24.7913 146.999 21.1175 150.17C8.95275 160.672 -12.7005 186.324 9.78805 222.631C18.2872 236.345 38.0914 247.488 68.033 255.663Z" fill="#F14F11"/>
<path d="M198.074 206.679H247.869L244.592 221.642H244.99C255.249 211.456 269.514 203.679 290.908 203.679C313.137 203.679 320.582 211.051 324.174 221.837C333.363 211.862 348.739 203.679 369.524 203.679C394.219 203.679 411.696 214.059 405.881 240.595L389.394 315.83H337.937L351.464 254.171C353.864 243.19 349.923 239.597 340.864 239.597C330.159 239.597 322.277 244.593 319.349 257.958L306.673 315.83H256.879L270.39 254.171C272.782 243.19 268.841 239.597 259.79 239.597C249.093 239.597 241.202 244.593 238.275 257.958L225.591 315.83H174.142L198.074 206.679Z" fill="black"/>
<path d="M507.895 202.284C565.921 202.284 587.12 221.05 578.329 261.153C569.489 301.459 540.075 320.225 482.049 320.225C424.023 320.225 402.824 301.459 411.663 261.153C420.446 221.05 449.861 202.284 507.895 202.284ZM489.129 287.883C509.922 287.883 520.57 278.711 524.414 261.153C528.186 243.985 521.592 234.61 500.815 234.61C480.232 234.61 469.324 243.985 465.569 261.153C461.709 278.711 468.554 287.883 489.129 287.883Z" fill="black"/>
<path d="M602.61 206.679H652.42L649.436 220.247H649.849C656.735 213.256 675.29 203.679 699.976 203.679C728.385 203.679 747.078 216.054 740.428 246.377L725.214 315.83H673.757L686.133 259.361C689.158 245.582 682.856 239.597 670.716 239.597C657.14 239.597 645.154 247.383 641.156 265.549L630.134 315.83H578.694L602.61 206.679Z" fill="black"/>
<path d="M850.787 304.257H850.365C838.841 314.646 823.424 320.225 800.595 320.225C767.247 320.225 740.469 302.457 749.357 261.94C758.246 221.439 792.785 203.679 826.125 203.679C847.113 203.679 860.827 208.675 867.412 219.055H867.818L878.928 168.36H930.377L898.043 315.83H848.249L850.787 304.257ZM835.443 237.205C816.92 237.205 805.096 247.991 802.039 261.94C798.892 276.311 804.845 286.691 824.803 286.691C844.559 286.691 855.004 277.511 858.418 261.94C861.784 246.588 855.401 237.205 835.443 237.205Z" fill="black"/>
<path d="M936.37 206.679H987.819L963.887 315.83H912.438L936.37 206.679Z" fill="black"/>
</svg>
