<svg width="1000" height="304" viewBox="0 0 1000 304" fill="none" xmlns="http://www.w3.org/2000/svg">
<path fill-rule="evenodd" clip-rule="evenodd" d="M102.138 213.143L79.8194 153.523C71.5662 131.492 66.6731 128.755 54.7387 128.755L54.7404 213.143H0V0H73.4006C136.082 0 156.263 25.3876 156.263 60.8682C156.263 97.5517 137.005 116.207 111.929 120.488C119.274 122.627 128.139 132.417 133.325 143.427C140.363 157.803 158.399 197.24 165.435 213.143H102.138ZM54.7422 44.9703V88.376H70.3367C88.9916 88.376 95.4104 79.5107 95.4104 65.1491C95.4121 49.8439 87.1624 44.9703 70.0245 44.9703H54.7422ZM188.011 213.143V0H307.885V44.9703H242.751V80.7437H295.95V124.149H242.751V167.576H315.827V213.143H188.011ZM536.636 213.143H478.234L467.229 151.364C462.625 125.691 457.744 97.8586 456.822 84.4072H456.511C455.894 95.1017 451.308 123.55 446.122 151.364L434.805 213.143H375.173L323.495 0H381.28L393.211 57.4992C403.293 105.495 405.144 126.291 405.452 134.251H405.743C406.973 117.119 410.634 90.5156 416.455 59.0214L427.462 0H488.316L502.078 71.261C505.142 87.4711 509.421 107.959 510.633 133.944H510.945C512.157 114.995 518.593 73.7075 522.874 52.9131L533.574 0H591.976L536.636 213.143ZM607.28 213.143V0H727.15V44.9703H662.022V80.7437H715.235V124.149H662.022V167.576H735.11V213.143H607.28ZM719.895 262.281C717.104 259.559 713.804 258.455 709.906 258.455C706.879 258.455 703.939 259.485 701.87 261.193C696 265.818 693.135 279.269 693.135 285.453C693.135 292.145 696.433 294.936 702.325 294.936C704.609 294.936 706.512 294.573 708.345 293.687L710.848 282.081H703.267V273.685H723.287L717.99 298.397C712.171 301.48 706.151 302.658 700.116 302.658C688.2 302.658 681.873 295.608 681.873 285.002C681.873 273.321 687.169 262.205 693.784 256.697C699.824 251.692 704.808 250.153 711.52 250.153C717.704 250.153 722.832 252.142 726.513 256.023L719.895 262.281ZM780.894 250.968C788.616 250.968 793.114 255.3 793.114 262.136C793.114 272.219 786.187 278.689 778.389 280.012C779.278 280.594 780.093 281.77 780.599 282.587C783.033 286.848 788.254 302.06 788.254 302.06H776.124L773.457 293.756C770.305 284.421 768.832 281.846 767.148 281.047C766.762 280.844 766.332 280.739 765.895 280.74L761.327 302.06H750.957L761.852 250.968H780.894ZM767.509 273.016H770.684C775.089 273.016 777.068 272.506 778.77 271.257C780.749 269.642 782.07 266.484 782.07 264.202C782.072 260.665 779.786 259.198 775.526 259.198H770.448L767.509 273.016ZM864.426 268.682C864.426 281.553 857.882 295.534 847.507 300.467C844.138 302.06 840.238 302.877 835.957 302.877C823.324 302.877 818.463 295.246 818.463 284.585C818.463 270.077 825.458 259.704 832.076 254.917C835.089 252.723 839.275 250.295 847.075 250.295C858.337 250.295 864.426 257.295 864.426 268.682ZM836.338 262.734C832.295 268.026 829.575 279.269 829.575 286.124C829.575 292.65 832.369 295.008 837.516 295.008C840.456 295.008 843.462 294.066 845.822 291.198C850.246 285.744 852.895 273.611 852.895 266.56C852.895 261.554 850.825 258.236 845.24 258.236C841.778 258.236 838.389 260.014 836.338 262.734ZM909.084 250.969L901.94 284.584C901.288 287.505 901.217 289.642 901.505 290.673C902.178 292.957 904.367 294.211 907.761 294.211C912.458 294.211 915.628 291.636 916.79 288.029C917.17 286.993 917.32 286.413 917.912 283.693L924.896 250.968H935.338L927.977 285.383C926.584 291.927 925.403 295.391 921.433 298.398C919.454 299.869 915.63 303.02 906.057 303.02C896.139 303.02 890.412 298.615 890.412 291.995C890.412 290.311 890.628 288.316 890.99 286.556L898.566 250.968L909.084 250.969ZM981.612 250.969C988.519 250.969 992.348 251.692 994.849 253.303C998.095 255.3 1000 258.692 1000 262.643C1000 271.471 995.811 277.964 988.157 281.483C985.587 282.661 981.25 283.241 977.207 283.241H971.767L967.799 302.06H957.28L968.16 250.968L981.612 250.969ZM973.6 274.865H978.749C982.717 274.865 984.931 273.977 986.254 272.36C987.794 270.529 988.9 267.576 988.9 264.638C988.9 261.244 987.071 259.272 983.227 259.272H976.916L973.6 274.865Z" fill="#707073"/>
<path fill-rule="evenodd" clip-rule="evenodd" d="M777.136 124.28H865.948V213.086H777.136V124.28Z" fill="#CC081F"/>
<path fill-rule="evenodd" clip-rule="evenodd" d="M910.299 124.28H999.111V213.086H910.299V124.28Z" fill="#FCC200"/>
</svg>
